<svg width="25" height="24" viewBox="0 0 25 24" fill="none" xmlns="http://www.w3.org/2000/svg">
<path d="M12.25 7.5C11.0074 7.5 10 8.50736 10 9.75C10 10.9926 11.0074 12 12.25 12C13.4926 12 14.5 10.9926 14.5 9.75C14.5 8.50736 13.4926 7.5 12.25 7.5Z" fill="#A685FA"/>
<path fill-rule="evenodd" clip-rule="evenodd" d="M1.75 4.875C1.75 3.83947 2.58947 3 3.625 3H20.875C21.9105 3 22.75 3.83947 22.75 4.875V14.625C22.75 15.6605 21.9105 16.5 20.875 16.5H3.625C2.58947 16.5 1.75 15.6605 1.75 14.625V4.875ZM8.5 9.75C8.5 7.67893 10.1789 6 12.25 6C14.3211 6 16 7.67893 16 9.75C16 11.8211 14.3211 13.5 12.25 13.5C10.1789 13.5 8.5 11.8211 8.5 9.75ZM19 9C18.5858 9 18.25 9.33579 18.25 9.75V9.7575C18.25 10.1717 18.5858 10.5075 19 10.5075H19.0075C19.4217 10.5075 19.7575 10.1717 19.7575 9.7575V9.75C19.7575 9.33579 19.4217 9 19.0075 9H19ZM4.75 9.75C4.75 9.33579 5.08579 9 5.5 9H5.5075C5.92171 9 6.2575 9.33579 6.2575 9.75V9.7575C6.2575 10.1717 5.92171 10.5075 5.5075 10.5075H5.5C5.08579 10.5075 4.75 10.1717 4.75 9.7575V9.75Z" fill="#A685FA"/>
<path d="M2.5 18C2.08579 18 1.75 18.3358 1.75 18.75C1.75 19.1642 2.08579 19.5 2.5 19.5C7.90005 19.5 13.1302 20.2222 18.0998 21.5749C19.2904 21.899 20.5 21.0168 20.5 19.7551V18.75C20.5 18.3358 20.1642 18 19.75 18H2.5Z" fill="#A685FA"/>
</svg>
