<svg width="25" height="24" viewBox="0 0 25 24" fill="none" xmlns="http://www.w3.org/2000/svg">
<path d="M12.25 2.25C12.6642 2.25 13 2.58579 13 3V5.25C13 5.66421 12.6642 6 12.25 6C11.8358 6 11.5 5.66421 11.5 5.25V3C11.5 2.58579 11.8358 2.25 12.25 2.25Z" fill="#A685FA"/>
<path d="M7.75 12C7.75 9.51472 9.76472 7.5 12.25 7.5C14.7353 7.5 16.75 9.51472 16.75 12C16.75 14.4853 14.7353 16.5 12.25 16.5C9.76472 16.5 7.75 14.4853 7.75 12Z" fill="#A685FA"/>
<path d="M19.1443 6.16634C19.4372 5.87344 19.4372 5.39857 19.1443 5.10568C18.8514 4.81278 18.3766 4.81278 18.0837 5.10568L16.4927 6.69667C16.1998 6.98956 16.1998 7.46444 16.4927 7.75733C16.7856 8.05022 17.2605 8.05022 17.5534 7.75733L19.1443 6.16634Z" fill="#A685FA"/>
<path d="M22 12C22 12.4142 21.6642 12.75 21.25 12.75H19C18.5858 12.75 18.25 12.4142 18.25 12C18.25 11.5858 18.5858 11.25 19 11.25H21.25C21.6642 11.25 22 11.5858 22 12Z" fill="#A685FA"/>
<path d="M18.0836 18.8943C18.3765 19.1871 18.8513 19.1871 19.1442 18.8943C19.4371 18.6014 19.4371 18.1265 19.1442 17.8336L17.5532 16.2426C17.2603 15.9497 16.7855 15.9497 16.4926 16.2426C16.1997 16.5355 16.1997 17.0104 16.4926 17.3033L18.0836 18.8943Z" fill="#A685FA"/>
<path d="M12.25 18C12.6642 18 13 18.3358 13 18.75V21C13 21.4142 12.6642 21.75 12.25 21.75C11.8358 21.75 11.5 21.4142 11.5 21V18.75C11.5 18.3358 11.8358 18 12.25 18Z" fill="#A685FA"/>
<path d="M8.0075 17.3033C8.3004 17.0104 8.3004 16.5355 8.0075 16.2426C7.71461 15.9497 7.23974 15.9497 6.94684 16.2426L5.35585 17.8336C5.06296 18.1265 5.06296 18.6014 5.35585 18.8943C5.64875 19.1872 6.12362 19.1872 6.41651 18.8943L8.0075 17.3033Z" fill="#A685FA"/>
<path d="M6.25 12C6.25 12.4142 5.91421 12.75 5.5 12.75H3.25C2.83579 12.75 2.5 12.4142 2.5 12C2.5 11.5858 2.83579 11.25 3.25 11.25H5.5C5.91421 11.25 6.25 11.5858 6.25 12Z" fill="#A685FA"/>
<path d="M6.94673 7.75732C7.23962 8.05021 7.7145 8.05021 8.00739 7.75732C8.30028 7.46443 8.30028 6.98955 8.00739 6.69666L6.4164 5.10567C6.12351 4.81278 5.64863 4.81278 5.35574 5.10567C5.06285 5.39856 5.06285 5.87344 5.35574 6.16633L6.94673 7.75732Z" fill="#A685FA"/>
</svg>
